<?xml version="1.0" encoding="UTF-8" standalone="no"?>
<svg
   xmlns:dc="http://purl.org/dc/elements/1.1/"
   xmlns:cc="http://creativecommons.org/ns#"
   xmlns:rdf="http://www.w3.org/1999/02/22-rdf-syntax-ns#"
   xmlns:svg="http://www.w3.org/2000/svg"
   xmlns="http://www.w3.org/2000/svg"
   xmlns:xlink="http://www.w3.org/1999/xlink"
   xmlns:sodipodi="http://sodipodi.sourceforge.net/DTD/sodipodi-0.dtd"
   xmlns:inkscape="http://www.inkscape.org/namespaces/inkscape"
   width="70mm"
   height="70mm"
   viewBox="0 0 70 70"
   version="1.1"
   id="svg8"
   inkscape:version="1.0.1 (3bc2e813f5, 2020-09-07)"
   sodipodi:docname="logo.svg">
  <defs
     id="defs2">
    <linearGradient
       inkscape:collect="always"
       id="linearGradient2864">
      <stop
         style="stop-color:#ffb9b7;stop-opacity:1;"
         offset="0"
         id="stop2860" />
      <stop
         style="stop-color:#ffe7d2;stop-opacity:0.80000001"
         offset="1"
         id="stop2862" />
    </linearGradient>
    <linearGradient
       inkscape:collect="always"
       xlink:href="#linearGradient2864"
       id="linearGradient2868"
       x1="123.96704"
       y1="55.373508"
       x2="87.132652"
       y2="100.35268"
       gradientUnits="userSpaceOnUse" />
    <linearGradient
       inkscape:collect="always"
       xlink:href="#linearGradient2864"
       id="linearGradient2868-4"
       x1="123.96704"
       y1="55.373508"
       x2="87.132652"
       y2="100.35268"
       gradientUnits="userSpaceOnUse"
       gradientTransform="translate(-69.230837,-45.607328)" />
  </defs>
  <sodipodi:namedview
     id="base"
     pagecolor="#ffffff"
     bordercolor="#666666"
     borderopacity="1.0"
     inkscape:pageopacity="0.0"
     inkscape:pageshadow="2"
     inkscape:zoom="1.4"
     inkscape:cx="197.58017"
     inkscape:cy="148.36159"
     inkscape:document-units="mm"
     inkscape:current-layer="layer1"
     inkscape:document-rotation="0"
     showgrid="false"
     inkscape:window-width="1280"
     inkscape:window-height="1009"
     inkscape:window-x="1507"
     inkscape:window-y="0"
     inkscape:window-maximized="0" />
  <metadata
     id="metadata5">
    <rdf:RDF>
      <cc:Work
         rdf:about="">
        <dc:format>image/svg+xml</dc:format>
        <dc:type
           rdf:resource="http://purl.org/dc/dcmitype/StillImage" />
        <dc:title></dc:title>
      </cc:Work>
    </rdf:RDF>
  </metadata>
  <g
     inkscape:label="Layer 1"
     inkscape:groupmode="layer"
     id="layer1">
    <text
       xml:space="preserve"
       style="font-style:normal;font-weight:normal;font-size:50.8px;line-height:1.25;font-family:sans-serif;fill:#000000;fill-opacity:1;stroke:none;stroke-width:0.264583"
       x="85.606041"
       y="93.103973"
       id="text841"><tspan
         sodipodi:role="line"
         id="tspan839"
         x="85.606041"
         y="93.103973"
         style="font-size:50.8px;stroke-width:0.264583" /></text>
    <ellipse
       style="opacity:0.996;fill:url(#linearGradient2868-4);fill-opacity:1;stroke:#fff9ff;stroke-width:0.585258;stroke-opacity:0.98995"
       id="path837"
       ry="34.395832"
       rx="34.773811"
       cy="34.9016"
       cx="35.090588" />
    <g
       id="g3612"
       transform="matrix(0.43056178,0,0,0.45242837,7.3906264,5.0273268)"
       style="fill:#000000;fill-opacity:0">
      <path
         id="path3612"
         style="fill:#000000;fill-opacity:0;stroke:#000000;stroke-width:6;stroke-linecap:round;stroke-linejoin:round"
         d="m 15.454,21.608 4.879,25.876 c -3.7786,6.3618 -5.9245,13.63 -5.9245,21.346 0,25.017 22.513,45.305 50.271,45.305 27.758,0 50.315,-20.288 50.315,-45.305 0,-7.4745 -2.0588,-14.519 -5.6196,-20.736 l 4.879,-25.833 -20.562,9.5402 c -8.1959,-5.2251 -18.217,-8.3205 -29.013,-8.3205 -10.481,0 -20.213,2.8909 -28.272,7.8413 l -20.948,-9.714 z" />
      <path
         id="path3478"
         style="fill:#000000;fill-opacity:0;stroke:#000000;stroke-width:3.9782;stroke-linecap:round;stroke-linejoin:round"
         d="m 15.454,21.608 4.879,25.876 c -3.7786,6.3618 -5.9245,13.63 -5.9245,21.346 0,25.017 22.513,45.305 50.271,45.305 27.758,0 50.315,-20.288 50.315,-45.305 0,-7.4745 -2.0588,-14.519 -5.6196,-20.736 l 4.879,-25.833 -20.562,9.5402 c -8.1959,-5.2251 -18.217,-8.3205 -29.013,-8.3205 -10.481,0 -20.213,2.8909 -28.272,7.8413 l -20.948,-9.714 z" />
      <circle
         id="path3183"
         style="fill:#000000;fill-opacity:0"
         transform="matrix(1.9388,0.8723,-0.8723,1.9388,-50.299,-95.029)"
         cx="72"
         cy="48"
         r="4" />
      <circle
         id="path3185"
         style="fill:#000000;fill-opacity:0"
         transform="matrix(0.76796,0.34552,-0.34552,0.76796,11.205,-1.3029)"
         cx="72"
         cy="48"
         r="4" />
      <circle
         id="path3195"
         style="fill:#000000;fill-opacity:0"
         transform="matrix(1.9388,0.8723,-0.8723,1.9388,-15.389,-95.1)"
         cx="72"
         cy="48"
         r="4" />
      <circle
         id="path3197"
         style="fill:#000000;fill-opacity:0"
         transform="matrix(0.76796,0.34552,-0.34552,0.76796,46.115,-1.3742)"
         cx="72"
         cy="48"
         r="4" />
      <path
         id="path3588"
         sodipodi:nodetypes="csccsc"
         style="fill:#000000;fill-opacity:0;stroke:#000000;stroke-width:2.788;stroke-linecap:round;stroke-linejoin:round"
         d="m 41.227,86.168 c 0.71997,5.451 3.9594,11.035 11.152,11.152 9.5596,0.15794 17.384,-10.258 19.682,-17.547 -5.2586,-0.76083 -10.517,-0.71929 -15.776,-0.23408 2.2988,6.9385 10.416,17.652 18.397,17.781 7.6568,0.12382 10.288,-4.9103 11.152,-11.152" />
    </g>
  </g>
</svg>
